<svg width="217" height="123" viewBox="0 0 217 123" fill="none" xmlns="http://www.w3.org/2000/svg">
<rect x="0.5" y="0.5" width="216" height="122" rx="12" fill="#121416"/>
<rect x="0.5" y="0.5" width="216" height="122" rx="12" stroke="#F9EF38" stroke-miterlimit="16"/>
<path d="M118.18 66.4596L115.05 59.1496C113.99 56.6696 112.04 56.5696 110.73 58.9296L108.84 62.3396C107.88 64.0696 106.09 64.2196 104.85 62.6696L104.63 62.3896C103.34 60.7696 101.52 60.9696 100.59 62.8196L98.8699 66.2696C97.6599 68.6696 99.4099 71.4996 102.09 71.4996H114.85C117.45 71.4996 119.2 68.8496 118.18 66.4596Z" stroke="white" stroke-opacity="0.4" stroke-width="1.2" stroke-linecap="round" stroke-linejoin="round"/>
<path d="M103.47 57.5C105.127 57.5 106.47 56.1569 106.47 54.5C106.47 52.8431 105.127 51.5 103.47 51.5C101.813 51.5 100.47 52.8431 100.47 54.5C100.47 56.1569 101.813 57.5 103.47 57.5Z" stroke="white" stroke-opacity="0.4" stroke-width="1.2" stroke-linecap="round" stroke-linejoin="round"/>
</svg>
