<svg width="16" height="16" viewBox="0 0 16 16" fill="none" xmlns="http://www.w3.org/2000/svg">
<path d="M14.6663 8.00065C14.6663 8.87398 14.4997 9.71396 14.1863 10.4806C13.753 10.1806 13.2263 10.0007 12.6663 10.0007C12.0397 10.0007 11.4597 10.2207 10.9997 10.5873C10.3863 11.074 9.99967 11.8273 9.99967 12.6673C9.99967 13.1673 10.1397 13.6406 10.3863 14.0406C10.413 14.0873 10.4463 14.134 10.4863 14.1807C9.71968 14.494 8.87967 14.6673 7.99967 14.6673C4.31967 14.6673 1.33301 11.6807 1.33301 8.00065C1.33301 4.32065 4.31967 1.33398 7.99967 1.33398C11.6797 1.33398 14.6663 4.32065 14.6663 8.00065Z" stroke="#C3C3C3" stroke-linecap="round" stroke-linejoin="round"/>
<path d="M6.25293 8.00039V7.07371C6.25293 5.92704 7.06626 5.4537 8.05959 6.02704L8.8596 6.48704L9.65959 6.94704C10.6529 7.52037 10.6529 8.46038 9.65959 9.03371L8.8596 9.49371L8.05959 9.95371C7.06626 10.527 6.25293 10.0604 6.25293 8.90704V8.00039Z" stroke="#C3C3C3" stroke-miterlimit="10" stroke-linecap="round" stroke-linejoin="round"/>
<path d="M15.3333 12.6667C15.3333 13.1667 15.1933 13.64 14.9467 14.04C14.8067 14.28 14.6267 14.4933 14.42 14.6667C13.9533 15.0867 13.34 15.3333 12.6667 15.3333C11.6933 15.3333 10.8467 14.8133 10.3867 14.04C10.14 13.64 10 13.1667 10 12.6667C10 11.8267 10.3867 11.0733 11 10.5867C11.46 10.22 12.04 10 12.6667 10C14.14 10 15.3333 11.1933 15.3333 12.6667Z" stroke="#C3C3C3" stroke-miterlimit="10" stroke-linecap="round" stroke-linejoin="round"/>
<path d="M13.6605 12.6523H11.6738" stroke="#C3C3C3" stroke-miterlimit="10" stroke-linecap="round" stroke-linejoin="round"/>
<path d="M12.667 11.6797V13.673" stroke="#C3C3C3" stroke-miterlimit="10" stroke-linecap="round" stroke-linejoin="round"/>
</svg>
