<svg width="16" height="16" viewBox="0 0 16 16" fill="none" xmlns="http://www.w3.org/2000/svg">
<path d="M15.0615 2.86035C15.2754 2.28626 15.1254 1.70361 14.7441 1.3252L14.7451 1.32422C14.7436 1.32271 14.7408 1.32184 14.7393 1.32031C14.7377 1.3187 14.737 1.31603 14.7354 1.31445L14.7344 1.31543C14.3638 0.941848 13.7801 0.75411 13.1885 0.996094L13.1875 0.995117C10.5484 2.05352 6.99779 4.67858 5.2168 6.89941L4.16309 8.21289C4.15776 8.21954 4.15244 8.22649 4.14746 8.2334C4.07574 8.33301 4.0034 8.44253 3.93555 8.56152C3.1894 8.63268 2.48603 8.95357 1.93555 9.49707L1.93359 9.49902C1.44589 9.98673 1.11806 10.643 1.01758 11.4072L1.0166 11.418L0.837891 13.0576L0.836915 13.0566C0.701394 14.2673 1.72873 15.3043 2.95508 15.1621L4.59473 14.9824C6.20382 14.806 7.26357 13.5452 7.43457 12.1533C7.58385 12.0735 7.72453 11.9786 7.84961 11.8691L9.14356 10.8447L9.14551 10.8438C10.2669 9.94802 11.481 8.60834 12.54 7.17969C13.5991 5.75096 14.5265 4.20059 15.0576 2.87109L15.0625 2.86035L15.0615 2.86035ZM6.46094 11.7871C6.46071 11.7917 6.46009 11.7971 6.45996 11.8018C6.43791 12.8712 5.66958 13.8594 4.48535 13.9893L2.8457 14.1689L2.8418 14.1689C2.25631 14.2378 1.76572 13.7429 1.83008 13.168L1.83008 13.167L2.01074 11.5273C2.08526 10.9767 2.31722 10.5295 2.64063 10.2061C3.07871 9.77478 3.65141 9.5459 4.25391 9.5459C4.33337 9.54592 4.39612 9.55317 4.48535 9.55957C4.50935 9.56214 4.53304 9.56284 4.55566 9.56641L4.56836 9.56836C5.01409 9.62673 5.43434 9.827 5.80664 10.1992C6.17936 10.5719 6.39395 11.0177 6.45606 11.4648C6.46211 11.583 6.46573 11.6901 6.46094 11.7871ZM14.0381 2.03125C14.1419 2.13231 14.2016 2.30154 14.127 2.50684C13.6376 3.72937 12.7621 5.20012 11.7363 6.58398C10.7089 7.97002 9.55326 9.23729 8.52148 10.0615L8.52246 10.0625L7.37402 10.9717C7.23494 10.4322 6.9507 9.91806 6.51367 9.48633L6.51367 9.48535C6.097 9.06879 5.61613 8.79161 5.0957 8.65137L5.99707 7.52539C7.66959 5.43974 11.079 2.91867 13.5596 1.92383L13.5645 1.9209C13.739 1.84874 13.9062 1.89623 14.0283 2.02148L14.0381 2.03125Z" fill="white" fill-opacity="0.65"/>
</svg>
