<svg width="100" height="100" viewBox="0 0 100 100" fill="none" xmlns="http://www.w3.org/2000/svg">
<circle opacity="0.1" cx="50" cy="50" r="50" fill="#F9EF38"/>
<path d="M39.6668 48.833L33.3335 66.6663L51.1668 60.3497M36.6668 34.9997H36.6835M66.6668 43.333H66.6835M55.0002 33.333H55.0168M66.6668 63.333H66.6835M66.6668 33.333L62.9335 34.583C61.8708 34.937 60.964 35.6491 60.3682 36.5975C59.7724 37.546 59.5244 38.672 59.6668 39.783C59.8335 41.2163 58.7168 42.4997 57.2502 42.4997H56.6168C55.1835 42.4997 53.9502 43.4997 53.6835 44.8997L53.3335 46.6663M66.6668 51.6663L65.3002 51.1163C63.8668 50.5497 62.2668 51.4497 62.0002 52.9663C61.8168 54.133 60.8002 54.9997 59.6168 54.9997H58.3335M48.3335 33.333L48.8835 34.6997C49.4502 36.133 48.5502 37.733 47.0335 37.9997C45.8668 38.1663 45.0002 39.1997 45.0002 40.383V41.6663" stroke="#F9EF38" stroke-width="3" stroke-linecap="round" stroke-linejoin="round"/>
<path d="M48.3334 51.6659C51.55 54.8825 53.05 58.6159 51.6667 59.9992C50.2834 61.3825 46.55 59.8825 43.3334 56.6659C40.1167 53.4492 38.6167 49.7159 40 48.3325C41.3834 46.9492 45.1167 48.4492 48.3334 51.6659Z" stroke="#F9EF38" stroke-width="3" stroke-linecap="round" stroke-linejoin="round"/>
</svg>
