<svg width="16" height="16" viewBox="0 0 16 16" fill="none" xmlns="http://www.w3.org/2000/svg">
<path d="M7.99967 14.1673C11.4054 14.1673 14.1663 11.4064 14.1663 8.00065C14.1663 4.59489 11.4054 1.83398 7.99967 1.83398C4.59392 1.83398 1.83301 4.59489 1.83301 8.00065C1.83301 11.4064 4.59392 14.1673 7.99967 14.1673Z" stroke="white" stroke-opacity="0.65" stroke-linecap="round" stroke-linejoin="round"/>
<path d="M6 7.08398C6.41421 7.08398 6.75 6.7482 6.75 6.33398C6.75 5.91977 6.41421 5.58398 6 5.58398C5.58579 5.58398 5.25 5.91977 5.25 6.33398C5.25 6.7482 5.58579 7.08398 6 7.08398Z" fill="white" fill-opacity="0.65"/>
<path d="M10 7.08398C10.4142 7.08398 10.75 6.7482 10.75 6.33398C10.75 5.91977 10.4142 5.58398 10 5.58398C9.58579 5.58398 9.25 5.91977 9.25 6.33398C9.25 6.7482 9.58579 7.08398 10 7.08398Z" fill="white" fill-opacity="0.65"/>
<path d="M10.3091 9.5C10.075 9.90535 9.73841 10.242 9.33304 10.476C8.92767 10.71 8.46784 10.8332 7.99976 10.8332C7.53169 10.8332 7.07186 10.71 6.66649 10.476C6.26112 10.242 5.92449 9.90535 5.69043 9.5" stroke="white" stroke-opacity="0.65" stroke-linecap="round" stroke-linejoin="round"/>
</svg>
