<svg width="13" height="15" viewBox="0 0 13 15" fill="none" xmlns="http://www.w3.org/2000/svg">
<path d="M1.82667 0.5L10.6067 0.5C11.34 0.5 11.94 1.10666 11.94 1.84666V3.32666C11.94 3.86666 11.6067 4.54 11.2733 4.87333L8.41333 7.43333C8.01333 7.77333 7.74667 8.44667 7.74667 8.98V11.8733C7.74667 12.28 7.48 12.8133 7.14667 13.02L6.22 13.6333C5.35333 14.1733 4.16 13.5667 4.16 12.4867V8.92C4.16 8.44667 3.89333 7.84001 3.62667 7.50667L1.1 4.81333C0.766667 4.47333 0.5 3.87334 0.5 3.46667L0.5 1.92C0.5 1.10667 1.1 0.5 1.82667 0.5Z" stroke="white" stroke-opacity="0.6" stroke-linecap="round" stroke-linejoin="round"/>
</svg>
