<svg width="16" height="16" viewBox="0 0 16 16" fill="none" xmlns="http://www.w3.org/2000/svg">
<path d="M5.66683 12.6673H5.3335C2.66683 12.6673 1.3335 12.0007 1.3335 8.66732V5.33398C1.3335 2.66732 2.66683 1.33398 5.3335 1.33398H10.6668C13.3335 1.33398 14.6668 2.66732 14.6668 5.33398V8.66732C14.6668 11.334 13.3335 12.6673 10.6668 12.6673H10.3335C10.1268 12.6673 9.92683 12.7673 9.80016 12.934L8.80016 14.2673C8.36016 14.854 7.64016 14.854 7.20016 14.2673L6.20016 12.934C6.0935 12.7873 5.84683 12.6673 5.66683 12.6673Z" stroke="white" stroke-miterlimit="10" stroke-linecap="round" stroke-linejoin="round"/>
<path d="M10.6641 7.33333H10.6701" stroke="white" stroke-linecap="round" stroke-linejoin="round"/>
<path d="M7.99715 7.33333H8.00314" stroke="white" stroke-linecap="round" stroke-linejoin="round"/>
<path d="M5.32967 7.33333H5.33566" stroke="white" stroke-linecap="round" stroke-linejoin="round"/>
</svg>
