<svg width="16" height="16" viewBox="0 0 16 16" fill="none" xmlns="http://www.w3.org/2000/svg">
<path d="M8 12.6673C5.79333 12.6673 4 10.874 4 8.66732L4 5.33399C4 3.12732 5.79333 1.33398 8 1.33398C10.2067 1.33398 12 3.12732 12 5.33398L12 8.66732C12 10.874 10.2067 12.6673 8 12.6673Z" stroke="white" stroke-opacity="0.65" stroke-linecap="round" stroke-linejoin="round"/>
<path d="M14 7.33398L14 8.66732C14 11.9807 11.3133 14.6673 8 14.6673C4.68667 14.6673 2 11.9807 2 8.66732L2 7.33399" stroke="white" stroke-opacity="0.65" stroke-linecap="round" stroke-linejoin="round"/>
<path d="M9.92676 4.98711C8.74009 4.55378 7.44676 4.55378 6.26009 4.98711" stroke="white" stroke-opacity="0.65" stroke-linecap="round" stroke-linejoin="round"/>
<path d="M9.31348 6.98727C8.51348 6.76727 7.66681 6.76727 6.86681 6.98727" stroke="white" stroke-opacity="0.65" stroke-linecap="round" stroke-linejoin="round"/>
</svg>
