<svg width="32" height="32" viewBox="0 0 32 32" fill="none" xmlns="http://www.w3.org/2000/svg">
<g clip-path="url(#clip0_1935_1807)">
<path d="M31.9559 17.1997H26.2402C21.2475 17.1997 17.2002 21.2471 17.2002 26.2397V31.9554C25.0801 31.3711 31.3716 25.0796 31.9559 17.1997Z" fill="white"/>
<path d="M14.8006 31.9554V26.2397C14.8006 21.2471 10.7533 17.1997 5.7606 17.1997H0.0449219C0.629189 25.0796 6.92068 31.3711 14.8006 31.9554Z" fill="white"/>
<path d="M31.9559 14.7996C31.3716 6.9197 25.0801 0.628213 17.2002 0.0439453V5.75962C17.2002 10.7523 21.2475 14.7996 26.2402 14.7996H31.9559Z" fill="white"/>
<path d="M14.8006 0.0439453C6.92068 0.628213 0.629189 6.9197 0.0449219 14.7996H5.7606C10.7533 14.7996 14.8006 10.7523 14.8006 5.75962V0.0439453Z" fill="white"/>
<path d="M10.8662 16C13.0842 14.8918 14.8918 13.0842 16 10.8662C17.1082 13.0842 18.9157 14.8918 21.1338 16C18.9157 17.1082 17.1082 18.9158 16 21.1338C14.8918 18.9158 13.0842 17.1082 10.8662 16Z" fill="white"/>
</g>
<defs>
<clipPath id="clip0_1935_1807">
<rect width="32" height="32" fill="white"/>
</clipPath>
</defs>
</svg>
