<svg width="24" height="24" viewBox="0 0 24 24" fill="none" xmlns="http://www.w3.org/2000/svg">
<rect width="24" height="24" rx="12" fill="#F9F046"/>
<path d="M16.0468 9.67245L10.3402 6.81911C6.50684 4.89911 4.93351 6.47245 6.85351 10.3058L7.43351 11.4658C7.60018 11.8058 7.60018 12.1991 7.43351 12.5391L6.85351 13.6924C4.93351 17.5258 6.50018 19.0991 10.3402 17.1791L16.0468 14.3258C18.6068 13.0458 18.6068 10.9524 16.0468 9.67245ZM13.8935 12.4991H10.2935C10.0202 12.4991 9.79351 12.2724 9.79351 11.9991C9.79351 11.7258 10.0202 11.4991 10.2935 11.4991H13.8935C14.1668 11.4991 14.3935 11.7258 14.3935 11.9991C14.3935 12.2724 14.1668 12.4991 13.8935 12.4991Z" fill="black"/>
</svg>
