<svg width="20" height="20" viewBox="0 0 20 20" fill="none" xmlns="http://www.w3.org/2000/svg">
<path d="M15 13.9579C14.8667 13.9579 14.7416 13.9162 14.625 13.8329C14.35 13.6246 14.2917 13.2329 14.5 12.9579C15.8083 11.2162 15.8083 8.78291 14.5 7.04124C14.2917 6.76624 14.35 6.37458 14.625 6.16624C14.9 5.95791 15.2917 6.01624 15.5 6.29124C17.1333 8.47458 17.1333 11.5246 15.5 13.7079C15.375 13.8746 15.1917 13.9579 15 13.9579Z" fill="white"/>
<path d="M16.5249 16.0425C16.3916 16.0425 16.2666 16.0009 16.1499 15.9175C15.8749 15.7092 15.8166 15.3175 16.0249 15.0425C18.2499 12.0759 18.2499 7.92588 16.0249 4.95921C15.8166 4.68421 15.8749 4.29255 16.1499 4.08421C16.4249 3.87588 16.8166 3.93421 17.0249 4.20921C19.5832 7.61755 19.5832 12.3842 17.0249 15.7925C16.9082 15.9592 16.7166 16.0425 16.5249 16.0425Z" fill="white"/>
<path d="M11.6834 3.14944C10.7501 2.63278 9.55841 2.76611 8.34175 3.52444L5.90841 5.04944C5.74175 5.14944 5.55008 5.20778 5.35841 5.20778H4.58341H4.16675C2.15008 5.20778 1.04175 6.31611 1.04175 8.33278V11.6661C1.04175 13.6828 2.15008 14.7911 4.16675 14.7911H4.58341H5.35841C5.55008 14.7911 5.74175 14.8494 5.90841 14.9494L8.34175 16.4744C9.07508 16.9328 9.79175 17.1578 10.4584 17.1578C10.8917 17.1578 11.3084 17.0578 11.6834 16.8494C12.6084 16.3328 13.1251 15.2578 13.1251 13.8244V6.17444C13.1251 4.74111 12.6084 3.66611 11.6834 3.14944Z" fill="white"/>
</svg>
