<svg width="78" height="78" viewBox="0 0 78 78" fill="none" xmlns="http://www.w3.org/2000/svg">
<path d="M39 0C31.2865 0 23.7463 2.28731 17.3328 6.57268C10.9193 10.8581 5.92053 16.949 2.96872 24.0753C0.0168981 31.2017 -0.755432 39.0433 0.749392 46.6085C2.25422 54.1738 5.9686 61.1229 11.4229 66.5772C16.8771 72.0314 23.8262 75.7458 31.3915 77.2506C38.9567 78.7554 46.7983 77.9831 53.9247 75.0313C61.051 72.0795 67.1419 67.0807 71.4273 60.6672C75.7127 54.2537 78 46.7135 78 39C77.9881 28.6602 73.8753 18.7474 66.564 11.436C59.2526 4.1247 49.3398 0.0119505 39 0ZM57.5742 32.1709L35.5723 53.1709C35.0129 53.7032 34.2702 54 33.4981 54C32.7259 54 31.9833 53.7032 31.4238 53.1709L20.4258 42.6709C19.8512 42.1205 19.5186 41.3645 19.501 40.5691C19.4834 39.7736 19.7822 39.0037 20.3319 38.4284C20.8815 37.8531 21.6371 37.5195 22.4325 37.5009C23.2279 37.4823 23.9983 37.7802 24.5742 38.3291L33.4981 46.8516L53.4258 27.8291C54.0018 27.2802 54.7721 26.9823 55.5675 27.0009C56.363 27.0195 57.1185 27.3531 57.6682 27.9284C58.2178 28.5037 58.5167 29.2736 58.499 30.0691C58.4814 30.8646 58.1488 31.6205 57.5742 32.1709Z" fill="white"/>
</svg>
