<svg width="24" height="24" viewBox="0 0 24 24" fill="none" xmlns="http://www.w3.org/2000/svg">
<g opacity="0.5">
<path d="M16.6055 9.49512C16.9359 9.51668 17.1874 9.80227 17.166 10.1328L16.7324 16.8457V16.8486C16.7147 17.1012 16.6947 17.3899 16.6406 17.6582C16.5853 17.9326 16.4869 18.2298 16.2832 18.4951C15.8537 19.0543 15.1307 19.2665 14.1406 19.2666H9.86035C8.87018 19.2666 8.14742 19.0541 7.71777 18.4951C7.51397 18.2298 7.41472 17.9326 7.35938 17.6582C7.30534 17.3899 7.28625 17.1012 7.26855 16.8486V16.8457L6.83496 10.1328C6.81362 9.80227 7.06406 9.51668 7.39453 9.49512C7.72492 9.47399 8.01068 9.72434 8.03223 10.0547L8.46582 16.7656L8.49414 17.1279C8.50489 17.2354 8.51821 17.3319 8.53613 17.4209C8.57072 17.5924 8.61651 17.6952 8.66895 17.7637C8.75298 17.8728 8.99196 18.0674 9.86035 18.0674H14.1406C15.0094 18.0673 15.2473 17.8727 15.3311 17.7637C15.3836 17.6952 15.4302 17.5927 15.4648 17.4209C15.5007 17.2427 15.5162 17.0359 15.5352 16.7656L15.9678 10.0547C15.9893 9.72423 16.275 9.47384 16.6055 9.49512ZM13.1064 14.4004C13.4377 14.4005 13.707 14.6687 13.707 15C13.707 15.3313 13.4377 15.5995 13.1064 15.5996H10.8867C10.5553 15.5996 10.2871 15.3314 10.2871 15C10.2871 14.6686 10.5553 14.4004 10.8867 14.4004H13.1064ZM13.666 11.7334C13.9973 11.7334 14.2664 12.0018 14.2666 12.333C14.2666 12.6644 13.9974 12.9326 13.666 12.9326H10.333C10.0017 12.9325 9.7334 12.6643 9.7334 12.333C9.73356 12.0018 10.0018 11.7335 10.333 11.7334H13.666ZM12.873 4.7334C13.5081 4.73345 14.0253 4.8729 14.3672 5.2666C14.6731 5.61913 14.7343 6.08184 14.7773 6.34668L14.9131 7.15039C15.9636 7.20635 17.0132 7.28596 18.0596 7.38965C18.389 7.42262 18.6293 7.71635 18.5967 8.0459C18.564 8.37553 18.2701 8.61654 17.9404 8.58398C15.7398 8.36592 13.5264 8.25295 11.3203 8.25293C10.0206 8.25293 8.71992 8.31889 7.41992 8.4502H7.41895L6.05859 8.58398C5.72881 8.61632 5.43566 8.3747 5.40332 8.04492C5.37112 7.71525 5.61172 7.422 5.94141 7.38965L7.30176 7.25586V7.25684C7.89768 7.19667 8.4938 7.15162 9.08984 7.11816L9.2207 6.33984C9.26593 6.07119 9.32744 5.60271 9.63672 5.25195C9.98106 4.86148 10.4997 4.73346 11.126 4.7334H12.873ZM11.126 5.93262C10.6263 5.93268 10.5411 6.0414 10.5371 6.0459C10.5263 6.05814 10.5045 6.08884 10.4795 6.17188C10.4659 6.21714 10.4541 6.2677 10.4424 6.32715L10.4043 6.53906L10.3154 7.06543C10.6503 7.05695 10.9854 7.05371 11.3203 7.05371C12.1089 7.05372 12.8982 7.06787 13.6875 7.0957L13.5947 6.54688L13.5938 6.54297C13.5369 6.19417 13.5037 6.10196 13.4609 6.05273C13.4501 6.0402 13.3552 5.93267 12.873 5.93262H11.126Z" fill="#BFBFBF"/>
</g>
</svg>
