<svg width="24" height="24" viewBox="0 0 24 24" fill="none" xmlns="http://www.w3.org/2000/svg">
<g opacity="0.5">
<path d="M16.6055 9.49609C16.9359 9.51765 17.1874 9.80325 17.166 10.1338L16.7324 16.8467V16.8496C16.7147 17.1022 16.6947 17.3908 16.6406 17.6592C16.5853 17.9335 16.4869 18.2308 16.2832 18.4961C15.8537 19.0552 15.1307 19.2675 14.1406 19.2676H9.86035C8.87018 19.2676 8.14742 19.0551 7.71777 18.4961C7.51397 18.2308 7.41472 17.9336 7.35938 17.6592C7.30534 17.3909 7.28625 17.1022 7.26855 16.8496V16.8467L6.83496 10.1338C6.81363 9.80325 7.06406 9.51765 7.39453 9.49609C7.72492 9.47497 8.01068 9.72531 8.03223 10.0557L8.46582 16.7666L8.49414 17.1289C8.50489 17.2364 8.51821 17.3329 8.53613 17.4219C8.57072 17.5933 8.61651 17.6962 8.66895 17.7646C8.75298 17.8737 8.99196 18.0684 9.86035 18.0684H14.1406C15.0094 18.0682 15.2473 17.8736 15.3311 17.7646C15.3836 17.6961 15.4302 17.5937 15.4648 17.4219C15.5007 17.2436 15.5162 17.0368 15.5352 16.7666L15.9678 10.0557C15.9893 9.72521 16.275 9.47481 16.6055 9.49609ZM13.1064 14.4014C13.4377 14.4015 13.707 14.6697 13.707 15.001C13.707 15.3323 13.4377 15.6005 13.1064 15.6006H10.8867C10.5553 15.6006 10.2871 15.3323 10.2871 15.001C10.2871 14.6696 10.5553 14.4014 10.8867 14.4014H13.1064ZM13.666 11.7344C13.9973 11.7344 14.2664 12.0027 14.2666 12.334C14.2666 12.6654 13.9974 12.9336 13.666 12.9336H10.333C10.0017 12.9335 9.7334 12.6653 9.7334 12.334C9.73356 12.0028 10.0018 11.7345 10.333 11.7344H13.666ZM12.873 4.73438C13.5081 4.73443 14.0253 4.87387 14.3672 5.26758C14.6731 5.62011 14.7343 6.08281 14.7773 6.34766L14.9131 7.15137C15.9636 7.20732 17.0132 7.28694 18.0596 7.39062C18.389 7.4236 18.6293 7.71733 18.5967 8.04688C18.564 8.37651 18.2701 8.61752 17.9404 8.58496C15.7398 8.3669 13.5264 8.25392 11.3203 8.25391C10.0206 8.25391 8.71992 8.31987 7.41992 8.45117H7.41895L6.05859 8.58496C5.72881 8.61729 5.43566 8.37568 5.40332 8.0459C5.37112 7.71622 5.61172 7.42298 5.94141 7.39062L7.30176 7.25684V7.25781C7.89768 7.19765 8.4938 7.1526 9.08984 7.11914L9.2207 6.34082C9.26593 6.07217 9.32744 5.60369 9.63672 5.25293C9.98106 4.86246 10.4997 4.73443 11.126 4.73438H12.873ZM11.126 5.93359C10.6263 5.93366 10.5411 6.04237 10.5371 6.04688C10.5263 6.05912 10.5045 6.08981 10.4795 6.17285C10.4659 6.21812 10.4541 6.26868 10.4424 6.32812L10.4043 6.54004L10.3154 7.06641C10.6503 7.05793 10.9854 7.05469 11.3203 7.05469C12.1089 7.05469 12.8982 7.06885 13.6875 7.09668L13.5947 6.54785L13.5938 6.54395C13.5369 6.19515 13.5037 6.10293 13.4609 6.05371C13.4501 6.04117 13.3552 5.93365 12.873 5.93359H11.126Z" fill="#BFBFBF"/>
</g>
</svg>
