<svg width="11" height="8" viewBox="0 0 11 8" fill="none" xmlns="http://www.w3.org/2000/svg">
<path d="M6.91166 2.63722L9.34435 1.42114C9.42579 1.38045 9.51628 1.36124 9.60723 1.36533C9.69818 1.36943 9.78657 1.3967 9.86402 1.44455C9.94147 1.4924 10.0054 1.55925 10.0498 1.63875C10.0941 1.71825 10.1174 1.80777 10.1175 1.89881V5.51285C10.1174 5.60389 10.0941 5.69341 10.0498 5.77291C10.0054 5.85241 9.94147 5.91926 9.86402 5.96711C9.78657 6.01497 9.69818 6.04223 9.60723 6.04633C9.51628 6.05043 9.42579 6.03121 9.34435 5.99052L6.91166 4.77444V2.63722ZM0.5 1.56861C0.5 1.2852 0.612585 1.01339 0.812989 0.812989C1.01339 0.612585 1.2852 0.5 1.56861 0.5H5.84305C6.12646 0.5 6.39827 0.612585 6.59867 0.812989C6.79908 1.01339 6.91166 1.2852 6.91166 1.56861V5.84305C6.91166 6.12646 6.79908 6.39827 6.59867 6.59867C6.39827 6.79908 6.12646 6.91166 5.84305 6.91166H1.56861C1.2852 6.91166 1.01339 6.79908 0.812989 6.59867C0.612585 6.39827 0.5 6.12646 0.5 5.84305V1.56861Z" stroke="white" stroke-linecap="round" stroke-linejoin="round"/>
</svg>
