<svg width="16" height="16" viewBox="0 0 16 16" fill="none" xmlns="http://www.w3.org/2000/svg">
<path d="M2.68065 3.98065C1.83398 5.10065 1.33398 6.49398 1.33398 8.00065C1.33398 11.6807 4.32065 14.6673 8.00065 14.6673C11.6807 14.6673 14.6673 11.6807 14.6673 8.00065C14.6673 4.32065 11.6807 1.33398 8.00065 1.33398" stroke="white" stroke-opacity="0.75" stroke-linecap="round" stroke-linejoin="round"/>
<path d="M3.33398 8.00065C3.33398 10.5807 5.42065 12.6673 8.00065 12.6673C10.5807 12.6673 12.6673 10.5807 12.6673 8.00065C12.6673 5.42065 10.5807 3.33398 8.00065 3.33398" stroke="white" stroke-opacity="0.75" stroke-linecap="round" stroke-linejoin="round"/>
<path d="M8 10.6673C9.47333 10.6673 10.6667 9.47398 10.6667 8.00065C10.6667 6.52732 9.47333 5.33398 8 5.33398" stroke="white" stroke-opacity="0.75" stroke-linecap="round" stroke-linejoin="round"/>
</svg>
